<svg id="visual" viewBox="0 0 900 600" width="900" height="600" xmlns="http://www.w3.org/2000/svg" xmlns:xlink="http://www.w3.org/1999/xlink" version="1.1"><rect x="0" y="0" width="900" height="600" fill="#001220"></rect><defs><linearGradient id="grad1_0" x1="33.3%" y1="100%" x2="100%" y2="0%"><stop offset="20%" stop-color="#001220" stop-opacity="1"></stop><stop offset="80%" stop-color="#001220" stop-opacity="1"></stop></linearGradient></defs><defs><linearGradient id="grad2_0" x1="0%" y1="100%" x2="66.7%" y2="0%"><stop offset="20%" stop-color="#001220" stop-opacity="1"></stop><stop offset="80%" stop-color="#001220" stop-opacity="1"></stop></linearGradient></defs><g transform="translate(900, 600)"><path d="M-432.7 0C-336.1 -26.1 -239.6 -52.1 -215.6 -124.5C-191.6 -196.9 -240.2 -315.6 -216.3 -374.7C-192.5 -433.8 -96.2 -433.2 0 -432.7L0 0Z" fill="#B43A7A"></path></g><g transform="translate(0, 0)"><path d="M432.7 0C412.8 70.3 393 140.6 359.4 207.5C325.8 274.4 278.5 337.7 216.3 374.7C154.1 411.7 77.1 422.2 0 432.7L0 0Z" fill="#B43A7A"></path></g></svg>