<svg id="visual" viewBox="0 0 900 600" width="900" height="600" xmlns="http://www.w3.org/2000/svg" xmlns:xlink="http://www.w3.org/1999/xlink" version="1.1"><path d="M899 600L863 574L836 548L872 522L845 496L827 470L890 443L890 417L872 391L836 365L890 339L845 313L854 287L890 261L881 235L881 209L881 183L827 157L827 130L881 104L881 78L872 52L836 26L872 0L900 0L900 26L900 52L900 78L900 104L900 130L900 157L900 183L900 209L900 235L900 261L900 287L900 313L900 339L900 365L900 391L900 417L900 443L900 470L900 496L900 522L900 548L900 574L900 600Z" fill="#b43a7a"></path><path d="M836 600L818 574L827 548L854 522L791 496L809 470L890 443L854 417L818 391L818 365L827 339L836 313L836 287L872 261L827 235L827 209L863 183L800 157L791 130L863 104L863 78L854 52L800 26L872 0L873 0L837 26L873 52L882 78L882 104L828 130L828 157L882 183L882 209L882 235L891 261L855 287L846 313L891 339L837 365L873 391L891 417L891 443L828 470L846 496L873 522L837 548L864 574L900 600Z" fill="#c2578c"></path><path d="M764 600L746 574L746 548L827 522L782 496L755 470L872 443L791 417L773 391L773 365L809 339L764 313L809 287L809 261L782 235L800 209L854 183L782 157L755 130L800 104L791 78L773 52L746 26L845 0L873 0L801 26L855 52L864 78L864 104L792 130L801 157L864 183L828 209L828 235L873 261L837 287L837 313L828 339L819 365L819 391L855 417L891 443L810 470L792 496L855 522L828 548L819 574L837 600Z" fill="#cf719d"></path><path d="M566 600L512 574L656 548L746 522L629 496L431 470L683 443L548 417L620 391L728 365L719 339L494 313L530 287L512 261L674 235L548 209L746 183L674 157L557 130L656 104L710 78L521 52L647 26L620 0L846 0L747 26L774 52L792 78L801 104L756 130L783 157L855 183L801 209L783 235L810 261L810 287L765 313L810 339L774 365L774 391L792 417L873 443L756 470L783 496L828 522L747 548L747 574L765 600Z" fill="#dc8ab0"></path><path d="M512 600L494 574L620 548L692 522L620 496L386 470L647 443L494 417L593 391L647 365L710 339L440 313L485 287L440 261L665 235L485 209L719 183L593 157L530 130L584 104L665 78L467 52L611 26L566 0L621 0L648 26L522 52L711 78L657 104L558 130L675 157L747 183L549 209L675 235L513 261L531 287L495 313L720 339L729 365L621 391L549 417L684 443L432 470L630 496L747 522L657 548L513 574L567 600Z" fill="#e9a4c2"></path><path d="M431 600L350 574L575 548L629 522L476 496L296 470L467 443L467 417L575 391L629 365L566 339L386 313L413 287L368 261L638 235L422 209L701 183L467 157L386 130L467 104L557 78L377 52L476 26L494 0L567 0L612 26L468 52L666 78L585 104L531 130L594 157L720 183L486 209L666 235L441 261L486 287L441 313L711 339L648 365L594 391L495 417L648 443L387 470L621 496L693 522L621 548L495 574L513 600Z" fill="#eeaeca"></path><path d="M377 600L314 574L548 548L593 522L440 496L278 470L449 443L404 417L512 391L620 365L539 339L323 313L386 287L314 261L575 235L395 209L638 183L404 157L377 130L413 104L557 78L368 52L467 26L476 0L495 0L477 26L378 52L558 78L468 104L387 130L468 157L702 183L423 209L639 235L369 261L414 287L387 313L567 339L630 365L576 391L468 417L468 443L297 470L477 496L630 522L576 548L351 574L432 600Z" fill="#eeaeca"></path><path d="M260 600L134 574L377 548L395 522L377 496L260 470L350 443L386 417L359 391L476 365L422 339L242 313L296 287L260 261L530 235L197 209L611 183L287 157L224 130L269 104L359 78L188 52L323 26L278 0L477 0L468 26L369 52L558 78L414 104L378 130L405 157L639 183L396 209L576 235L315 261L387 287L324 313L540 339L621 365L513 391L405 417L450 443L279 470L441 496L594 522L549 548L315 574L378 600Z" fill="#e9a4c2"></path><path d="M98 600L98 574L215 548L197 522L152 496L98 470L179 443L116 417L197 391L224 365L233 339L215 313L143 287L89 261L197 235L143 209L170 183L188 157L197 130L188 104L125 78L143 52L152 26L98 0L279 0L324 26L189 52L360 78L270 104L225 130L288 157L612 183L198 209L531 235L261 261L297 287L243 313L423 339L477 365L360 391L387 417L351 443L261 470L378 496L396 522L378 548L135 574L261 600Z" fill="#dc8ab0"></path><path d="M80 600L71 574L98 548L134 522L80 496L80 470L143 443L89 417L125 391L116 365L152 339L107 313L116 287L35 261L62 235L134 209L71 183L116 157L152 130L170 104L17 78L80 52L53 26L80 0L99 0L153 26L144 52L126 78L189 104L198 130L189 157L171 183L144 209L198 235L90 261L144 287L216 313L234 339L225 365L198 391L117 417L180 443L99 470L153 496L198 522L216 548L99 574L99 600Z" fill="#cf719d"></path><path d="M26 600L17 574L17 548L35 522L44 496L8 470L98 443L71 417L62 391L53 365L71 339L35 313L62 287L26 261L44 235L62 209L35 183L26 157L62 130L80 104L8 78L17 52L26 26L35 0L81 0L54 26L81 52L18 78L171 104L153 130L117 157L72 183L135 209L63 235L36 261L117 287L108 313L153 339L117 365L126 391L90 417L144 443L81 470L81 496L135 522L99 548L72 574L81 600Z" fill="#c2578c"></path><path d="M0 600L0 574L0 548L0 522L0 496L0 470L0 443L0 417L0 391L0 365L0 339L0 313L0 287L0 261L0 235L0 209L0 183L0 157L0 130L0 104L0 78L0 52L0 26L0 0L36 0L27 26L18 52L9 78L81 104L63 130L27 157L36 183L63 209L45 235L27 261L63 287L36 313L72 339L54 365L63 391L72 417L99 443L9 470L45 496L36 522L18 548L18 574L27 600Z" fill="#b43a7a"></path></svg>